<svg xmlns="http://www.w3.org/2000/svg" width="300" height="300" viewBox="0 0 300 300">
  <!-- Connection lines -->
  <line x1="50" y1="50" x2="150" y2="120" stroke="white" stroke-width="0.8" opacity="0.25"/>
  <line x1="50" y1="50" x2="240" y2="70" stroke="white" stroke-width="0.8" opacity="0.2"/>
  <line x1="150" y1="120" x2="240" y2="70" stroke="white" stroke-width="0.8" opacity="0.22"/>
  <line x1="150" y1="120" x2="100" y2="230" stroke="white" stroke-width="0.8" opacity="0.28"/>
  <line x1="240" y1="70" x2="270" y2="190" stroke="white" stroke-width="0.8" opacity="0.22"/>
  <line x1="100" y1="230" x2="270" y2="190" stroke="white" stroke-width="0.8" opacity="0.2"/>
  <line x1="50" y1="50" x2="20" y2="170" stroke="white" stroke-width="0.8" opacity="0.18"/>
  <line x1="20" y1="170" x2="100" y2="230" stroke="white" stroke-width="0.8" opacity="0.2"/>
  <line x1="150" y1="120" x2="210" y2="260" stroke="white" stroke-width="0.8" opacity="0.18"/>
  <line x1="240" y1="70" x2="290" y2="30" stroke="white" stroke-width="0.8" opacity="0.15"/>
  <line x1="50" y1="50" x2="10" y2="10" stroke="white" stroke-width="0.8" opacity="0.15"/>
  <line x1="270" y1="190" x2="210" y2="260" stroke="white" stroke-width="0.8" opacity="0.2"/>
  <!-- Pulsing nodes -->
  <circle cx="50" cy="50" r="4" fill="white" opacity="0.7"/>
  <circle cx="240" cy="70" r="3.5" fill="white" opacity="0.6"/>
  <circle cx="150" cy="120" r="5.5" fill="white" opacity="0.85"/>
  <circle cx="270" cy="190" r="4" fill="white" opacity="0.6"/>
  <circle cx="100" cy="230" r="4.5" fill="white" opacity="0.7"/>
  <circle cx="20" cy="170" r="3" fill="white" opacity="0.5"/>
  <circle cx="210" cy="260" r="3.5" fill="white" opacity="0.55"/>
  <circle cx="290" cy="30" r="2.5" fill="white" opacity="0.45"/>
  <circle cx="10" cy="10" r="2.5" fill="white" opacity="0.4"/>
  <!-- Small satellite nodes -->
  <circle cx="110" cy="80" r="2" fill="white" opacity="0.35"/>
  <circle cx="195" cy="145" r="2" fill="white" opacity="0.35"/>
  <circle cx="80" cy="150" r="2" fill="white" opacity="0.3"/>
  <line x1="110" y1="80" x2="150" y2="120" stroke="white" stroke-width="0.5" opacity="0.2"/>
  <line x1="195" y1="145" x2="150" y2="120" stroke="white" stroke-width="0.5" opacity="0.18"/>
  <line x1="80" y1="150" x2="150" y2="120" stroke="white" stroke-width="0.5" opacity="0.18"/>
</svg>
